<svg xmlns="http://www.w3.org/2000/svg" xmlns:xlink="http://www.w3.org/1999/xlink" width="500" zoomAndPan="magnify" viewBox="0 0 375 374.999991" height="500" preserveAspectRatio="xMidYMid meet" version="1.0"><defs><g/></defs><rect x="-37.5" width="450" fill="#ffffff" y="-37.499999" height="449.999989" fill-opacity="1"/><rect x="-37.5" width="450" fill="#000000" y="-37.499999" height="449.999989" fill-opacity="1"/><rect x="-37.5" width="450" fill="#ffffff" y="-37.499999" height="449.999989" fill-opacity="1"/><rect x="-37.5" width="450" fill="#000000" y="-37.499999" height="449.999989" fill-opacity="1"/><g fill="#ff1616" fill-opacity="1"><g transform="translate(60.132894, 204.374987)"><g><path d="M 34.171875 0 L 34.171875 -12.734375 C 34.171875 -14.316406 34.226562 -15.9375 34.34375 -17.59375 C 34.46875 -19.257812 34.597656 -20.65625 34.734375 -21.78125 C 34.867188 -22.914062 34.953125 -23.632812 34.984375 -23.9375 L 34.78125 -23.9375 L 28.25 0 L 19.375 0 L 12.796875 -23.890625 L 12.59375 -23.890625 C 12.625 -23.578125 12.710938 -22.863281 12.859375 -21.75 C 13.015625 -20.644531 13.160156 -19.257812 13.296875 -17.59375 C 13.441406 -15.9375 13.515625 -14.316406 13.515625 -12.734375 L 13.515625 0 L 3.078125 0 L 3.078125 -35.34375 L 19.109375 -35.34375 L 24.453125 -14.953125 L 24.65625 -14.953125 L 29.953125 -35.34375 L 45.421875 -35.34375 L 45.421875 0 Z M 34.171875 0 "/></g></g></g><g fill="#ff1616" fill-opacity="1"><g transform="translate(112.010486, 204.374987)"><g><path d="M 3.796875 -35.34375 L 34.375 -35.34375 L 34.375 -26.875 L 15.15625 -26.875 L 15.15625 -21.984375 L 31.59375 -21.984375 L 31.59375 -13.875 L 15.15625 -13.875 L 15.15625 -8.484375 L 34.734375 -8.484375 L 34.734375 0 L 3.796875 0 Z M 3.796875 -35.34375 "/></g></g></g><g fill="#ff1616" fill-opacity="1"><g transform="translate(152.485438, 204.374987)"><g><path d="M 4.3125 0 L 4.3125 -35.34375 L 15.671875 -35.34375 L 15.671875 0 Z M 4.3125 0 "/></g></g></g><g fill="#ff1616" fill-opacity="1"><g transform="translate(175.856435, 204.374987)"><g><path d="M 3.796875 -35.34375 L 32.359375 -35.34375 L 32.359375 -26.875 L 15.15625 -26.875 L 15.15625 -20.8125 L 29.953125 -20.8125 L 29.953125 -12.6875 L 15.15625 -12.6875 L 15.15625 0 L 3.796875 0 Z M 3.796875 -35.34375 "/></g></g></g><g fill="#ff1616" fill-opacity="1"><g transform="translate(213.506419, 204.374987)"><g><path d="M 3.796875 -35.34375 L 15.15625 -35.34375 L 15.15625 -9.046875 L 33.296875 -9.046875 L 33.296875 0 L 3.796875 0 Z M 3.796875 -35.34375 "/></g></g></g><g fill="#ff1616" fill-opacity="1"><g transform="translate(251.156403, 204.374987)"><g><path d="M 4.3125 0 L 4.3125 -35.34375 L 15.671875 -35.34375 L 15.671875 0 Z M 4.3125 0 "/></g></g></g><g fill="#ff1616" fill-opacity="1"><g transform="translate(274.527411, 204.374987)"><g><path d="M 39.96875 0 L 26.203125 0 L 19.671875 -11 L 19.46875 -11 L 12.953125 0 L 0.203125 0 L 12.84375 -18.703125 L 1.4375 -35.34375 L 15.15625 -35.34375 L 20.5 -26.296875 L 20.703125 -26.296875 L 26.09375 -35.34375 L 38.78125 -35.34375 L 27.328125 -18.65625 Z M 39.96875 0 "/></g></g></g></svg>